<svg xmlns="http://www.w3.org/2000/svg" xmlns:xlink="http://www.w3.org/1999/xlink" viewBox="0 0 2185.72 476.13"><defs><style>.cls-1{fill:url(#radial-gradient);}.cls-2{fill:#fff;}</style><radialGradient id="radial-gradient" cx="8.52" cy="-1.26" r="521.72" gradientUnits="userSpaceOnUse"><stop offset="0" stop-color="#15e888"/><stop offset="0.33" stop-color="#00a5ed"/><stop offset="0.69" stop-color="#044db5"/><stop offset="1" stop-color="#0d1f2d"/></radialGradient></defs><g id="Layer_2" data-name="Layer 2"><g id="Layer_1-2" data-name="Layer 1"><path class="cls-1" d="M288.24,319.59l120.93-69.82a13.52,13.52,0,0,0,0-23.42L288.24,156.54A13.52,13.52,0,0,0,268,168.25V307.88A13.52,13.52,0,0,0,288.24,319.59Z"/><path class="cls-1" d="M192.88,101.48,20.28,1.83A13.52,13.52,0,0,0,0,13.54v449A13.53,13.53,0,0,0,20.28,474.3l172.6-99.66a43.66,43.66,0,0,0,21.84-37.82V139.31A43.69,43.69,0,0,0,192.88,101.48Z"/><path class="cls-2" d="M547.74,322.34q-5-5-5-14.17V120.73h85.6q21.84,0,38.37,8.41a61.64,61.64,0,0,1,25.69,23.91q9.14,15.49,9.15,35.57v64.94q0,36.32-18.3,55.05t-53.73,18.75h-67.6Q552.76,327.36,547.74,322.34Zm81.18-14.46q25.08,0,37.93-13.73t12.84-40.59V188.62q0-21.54-14.31-35t-37.64-13.43H564.57V307.88Z"/><path class="cls-2" d="M854.15,270.09H763.53l-21.26,57.27H719.84l79.4-206.63h10q9.75,0,14.17,11.8l45.46,119.26h.29v.59l28.64,75H875.4Zm-83.83-18.3h77L809,149.06h-.3Z"/><path class="cls-2" d="M926.76,180.06h20.67v20.07a48.71,48.71,0,0,1,16.38-16.23q10.19-6.21,20.51-6.2h21.26q23.61,0,38.23,15.05t14.61,39.85v36.31q0,27.45-14.91,44.13t-39.41,16.68H982.85q-9.15,0-19.19-5.17A41.1,41.1,0,0,1,948,311.12v75H926.76Zm76.75,130.77q15.35,0,24.5-11.52t9.15-30.4V232.6q0-16.23-8.85-26.12T1005,196.59H984.32q-12.39,0-22.43,9.59T948,230.83v44.28q2.06,15.64,12.1,25.68a32.65,32.65,0,0,0,23.91,10Z"/><path class="cls-2" d="M1097.38,180.06H1118v20.07a48.8,48.8,0,0,1,16.38-16.23,39.06,39.06,0,0,1,20.52-6.2h21.25q23.63,0,38.23,15.05T1229,232.6v36.31q0,27.45-14.9,44.13t-39.41,16.68h-21.26q-9.15,0-19.18-5.17a41.13,41.13,0,0,1-15.65-13.43v75h-21.25Zm76.75,130.77q15.34,0,24.5-11.52t9.15-30.4V232.6q0-16.23-8.86-26.12t-23.32-9.89h-20.66q-12.4,0-22.43,9.59t-13.88,24.65v44.28q2.07,15.64,12.11,25.68a32.62,32.62,0,0,0,23.91,10Z"/><path class="cls-2" d="M1367.47,322.19a52.92,52.92,0,0,1-21.11-21.25q-7.52-13.72-7.52-31.73h21.25q0,18.3,10.77,29.66t28.49,11.37h32.77q17.42,0,28-7.83t10.63-20.51V263a22.3,22.3,0,0,0-7.83-17.13q-7.82-7.08-21.4-9.15l-53.13-8.85Q1366,224,1353.6,211.94t-12.4-30.41V165.59q0-21.54,16.09-34.39t42.65-12.84h33.36q25.08,0,40.44,15.21t15.35,40h-21.26q0-16.23-9.44-26t-25.09-9.74h-33.36q-16.83,0-26.86,7.52a24,24,0,0,0-10,20.22v15.94a23,23,0,0,0,7.53,17.42q7.53,7.08,20.81,9.45l52.84,9.15q23,4.14,35.72,15.79T1492.63,263V281.9q0,21.56-16.53,34.68t-43.39,13.14h-34Q1381,329.72,1367.47,322.19Z"/><path class="cls-2" d="M1554.18,317.32q-10.18-10-10.19-33.06V199h-26V180.06h26V135.49h21.26v44.57h38.37V199h-38.37v85.31q0,13,5.16,18.6t17.27,5.61h15.94v18.89h-15.94Q1564.36,327.36,1554.18,317.32Z"/><path class="cls-2" d="M1651.73,315.84Q1639,302,1639,279.54V180.06h21.25V280.13q0,13.88,6.79,22.28a21.69,21.69,0,0,0,17.71,8.42h18.31q13.58,0,25.09-10.92A50.17,50.17,0,0,0,1743,272.45V180.06h21.25v147.3h-20.66V304.92a57.28,57.28,0,0,1-18,17.71q-11.22,7.1-21.84,7.09h-18.9Q1664.44,329.72,1651.73,315.84Z"/><path class="cls-2" d="M1828,322.63a48,48,0,0,1-18.3-19.77q-6.5-12.69-6.5-29.52V237.92q0-17.71,6.79-31.44a50.41,50.41,0,0,1,19.19-21.26,53.59,53.59,0,0,1,28.34-7.52h21.84a42.18,42.18,0,0,1,19.34,4.72,39,39,0,0,1,14.9,13V120.73h21.26V327.36h-20.66V305.51a53.07,53.07,0,0,1-17.72,17.57q-10.92,6.65-21.25,6.64h-20.37A51.13,51.13,0,0,1,1828,322.63Zm46.64-11.8a32,32,0,0,0,18.3-6.05,47.62,47.62,0,0,0,14.47-15.8,45,45,0,0,0,6.19-20.07V231.72q-2.05-15.65-11.65-25.39a31.38,31.38,0,0,0-23.18-9.74h-20.66q-15.06,0-24.35,11.36t-9.3,30v35.42q0,16.53,8.71,27a27.66,27.66,0,0,0,22.28,10.48Z"/><path class="cls-2" d="M1984.11,153.49a17.18,17.18,0,1,1,11.51,4.43A15.58,15.58,0,0,1,1984.11,153.49Zm.89,26.57h21.25v147.3H1985Z"/><path class="cls-2" d="M2065.58,314.37q-15.06-15.35-15-40.44V233.49q0-25.1,15.2-40.44T2106,177.7h24.21q25.08,0,40.29,15.35t15.2,40.44v40.44q0,25.1-15.35,40.44t-40.73,15.35h-24.21Q2080.64,329.72,2065.58,314.37Zm64.06-3.54q15.93,0,25.38-10.19t9.45-26.71V233.49q0-16.53-9.45-26.72t-24.79-10.18H2106q-15.34,0-24.79,10.18t-9.45,26.72v40.44q0,16.83,9.15,26.86t24.5,10Z"/></g></g></svg>